<?xml version="1.0" standalone="no"?>
<svg xmlns="http://www.w3.org/2000/svg" viewBox="0 0 349.16 29" width="349.16" height="29"><g fill="#f29b18" color="#f29b18" transform="translate(0, 0) scale(0.6041667)"><svg width="44.0" height="48.0" x="0.0" y="0.0" viewBox="0 0 44 48"><path fill="currentColor" fill-rule="evenodd" d="M26.592 7.876c-1.442 3.958-2.352 9.744-2.352 16.195 0 6.393.894 12.136 2.311 16.09-.691.939-1.454 1.46-2.256 1.46-3.13-.003-5.665-7.895-5.665-17.634 0-9.734 2.535-17.63 5.661-17.63.82.001 1.599.546 2.3 1.52M37.084 24.07c.003 6.693-1.663 12.123-3.716 12.123s-3.717-5.43-3.717-12.121c0-6.696 1.664-12.124 3.717-12.127 2.056.003 3.719 5.43 3.716 12.125M21.51 0c2.12.002 4.037 2.67 5.43 6.98 1.172-2.82 2.642-4.504 4.238-4.504 3.83-.005 6.936 9.668 6.934 21.594.002 11.926-3.106 21.597-6.937 21.596-1.607 0-3.089-1.711-4.265-4.573-1.389 4.256-3.296 6.882-5.397 6.884-4.257-.002-7.708-10.74-7.708-23.99C13.805 10.745 17.257 0 21.51 0zm-6.145 2.36c-5.194 4.504-8.651 12.467-8.651 21.535 0 9.067 3.455 17.03 8.655 21.531C6.292 41.661-.003 33.435 0 23.894 0 14.356 6.292 6.129 15.365 2.361zm26.647 14.91c1.098 0 1.986 2.9 1.988 6.483-.002 3.577-.891 6.48-1.99 6.48-1.096 0-1.985-2.9-1.987-6.482-.002-3.58.891-6.482 1.99-6.482z"></path></svg></g><line x1="38.584" y1="1" x2="38.584" y2="28" stroke="#01427c" stroke-linecap="round"></line><path fill="#01427c" fill-rule="nonzero" d="M3.82 0.53L5.59 0.53L5.59 16.61Q5.59 19.75 2.81 19.75L2.81 19.75Q1.42 19.75 0 18.82L0 18.82L0.62 17.88Q1.49 18.36 2.33 18.36L2.33 18.36Q3.82 18.36 3.82 16.44L3.82 16.44L3.82 0.53ZM19.15 10.30L19.15 10.30Q19.15 12.89 17.52 14.54L17.52 14.54Q16.06 16.01 13.92 16.01L13.92 16.01Q11.45 16.01 9.94 14.14L9.94 14.14Q8.66 12.55 8.66 10.30L8.66 10.30Q8.66 7.66 10.25 6.02L10.25 6.02Q11.69 4.54 13.92 4.54L13.92 4.54Q16.44 4.54 17.93 6.43L17.93 6.43Q19.15 8.02 19.15 10.30ZM10.39 10.30L10.39 10.30Q10.39 12.38 11.47 13.61L11.47 13.61Q12.43 14.69 13.90 14.69L13.90 14.69Q15.48 14.69 16.45 13.48Q17.42 12.26 17.42 10.30L17.42 10.30Q17.42 8.23 16.37 6.98L16.37 6.98Q15.41 5.83 13.92 5.83L13.92 5.83Q12.34 5.83 11.36 7.07Q10.39 8.30 10.39 10.30ZM28.42 5.57L27.89 6.46Q26.69 5.83 25.27 5.83L25.27 5.83Q24.31 5.83 23.77 6.25Q23.23 6.67 23.23 7.39L23.23 7.39Q23.23 8.16 23.72 8.58Q24.22 9 25.61 9.41L25.61 9.41Q27.58 10.01 28.34 10.75Q29.11 11.50 29.11 12.84L29.11 12.84Q29.11 14.26 28.04 15.13Q26.98 16.01 25.30 16.01L25.30 16.01Q23.09 16.01 21.46 14.81L21.46 14.81Q21.53 14.69 21.70 14.40L21.70 14.40Q21.86 14.09 21.98 13.92L21.98 13.92Q23.38 14.69 24.98 14.69L24.98 14.69Q27.50 14.69 27.50 12.79L27.50 12.79Q27.50 12.02 26.96 11.59Q26.42 11.16 24.96 10.78L24.96 10.78Q21.55 9.82 21.55 7.44L21.55 7.44Q21.55 6.17 22.55 5.35Q23.54 4.54 25.10 4.54L25.10 4.54Q26.95 4.54 28.42 5.57L28.42 5.57ZM40.75 10.30L40.75 10.82L32.98 10.82Q33.07 12.58 34.19 13.63Q35.30 14.69 37.08 14.69L37.08 14.69Q38.57 14.69 39.98 13.80L39.98 13.80L40.54 14.76Q38.95 16.01 36.72 16.01L36.72 16.01Q34.13 16.01 32.59 14.30L32.59 14.30Q31.18 12.77 31.18 10.32L31.18 10.32Q31.18 7.78 32.69 6.07L32.69 6.07Q34.06 4.54 36.07 4.54L36.07 4.54Q38.50 4.54 39.77 6.50L39.77 6.50Q40.75 8.04 40.75 10.30L40.75 10.30ZM32.95 9.53L32.95 9.53L39.10 9.53Q39.02 7.78 38.24 6.79Q37.46 5.81 36.10 5.81L36.10 5.81Q34.80 5.81 33.92 6.84Q33.05 7.87 32.95 9.53ZM49.82 0.53L51.60 0.53L51.60 15.72L49.82 15.72L49.82 0.53ZM63.31 5.93L63.31 5.93L63.55 4.82L64.80 4.82L64.80 14.83Q64.80 20.30 60.02 20.30L60.02 20.30Q57.77 20.30 56.04 18.79L56.04 18.79L56.59 17.90Q58.08 18.94 59.76 18.94L59.76 18.94Q61.54 18.94 62.38 17.95Q63.22 16.97 63.22 14.83L63.22 14.83L63.22 14.62Q62.04 16.01 60.00 16.01L60.00 16.01Q57.62 16.01 56.23 14.23L56.23 14.23Q55.03 12.70 55.03 10.42L55.03 10.42Q55.03 7.54 56.71 5.90L56.71 5.90Q58.10 4.54 60.14 4.54L60.14 4.54Q61.06 4.54 61.96 4.93Q62.86 5.33 63.31 5.93ZM63.22 12.82L63.22 12.82L63.22 7.61Q62.90 6.86 62.09 6.35Q61.27 5.83 60.36 5.83L60.36 5.83Q58.78 5.83 57.77 7.07Q56.76 8.30 56.76 10.25L56.76 10.25Q56.76 12.46 57.86 13.68L57.86 13.68Q58.82 14.69 60.26 14.69L60.26 14.69Q61.22 14.69 62.03 14.17Q62.83 13.66 63.22 12.82ZM77.71 9.22L77.71 15.72L76.13 15.72L76.13 9.34Q76.13 5.93 73.15 5.93L73.15 5.93Q72.29 5.93 71.45 6.34Q70.61 6.74 70.15 7.37L70.15 7.37L70.15 15.72L68.54 15.72L68.54 4.82L69.89 4.82L70.03 5.98L70.10 5.98Q71.52 4.54 73.66 4.54L73.66 4.54Q77.71 4.54 77.71 9.22L77.71 9.22ZM89.33 9.10L89.33 15.72L88.13 15.72L87.89 14.54Q86.42 16.01 84.24 16.01L84.24 16.01Q82.58 16.01 81.60 15.08Q80.62 14.16 80.62 12.62L80.62 12.62Q80.62 8.88 86.09 8.88L86.09 8.88L87.74 8.88L87.74 8.74Q87.74 5.88 84.96 5.88L84.96 5.88Q83.38 5.88 81.91 6.94L81.91 6.94L81.38 6.05Q83.04 4.54 85.42 4.54L85.42 4.54Q87.31 4.54 88.32 5.71Q89.33 6.89 89.33 9.10L89.33 9.10ZM87.74 13.01L87.74 10.06L86.28 10.06Q82.34 10.06 82.34 12.48L82.34 12.48Q82.34 13.51 82.96 14.10Q83.57 14.69 84.67 14.69L84.67 14.69Q85.63 14.69 86.52 14.21Q87.41 13.73 87.74 13.01L87.74 13.01ZM101.26 5.69L101.26 5.69L100.73 6.60Q99.50 5.83 98.06 5.83L98.06 5.83Q96.10 5.83 94.99 7.27L94.99 7.27Q94.03 8.52 94.03 10.39L94.03 10.39Q94.03 12.38 95.26 13.58L95.26 13.58Q96.38 14.69 98.21 14.69L98.21 14.69Q99.74 14.69 100.92 13.80L100.92 13.80L101.45 14.76Q100.10 16.01 97.85 16.01L97.85 16.01Q95.21 16.01 93.65 14.23L93.65 14.23Q92.30 12.67 92.30 10.32L92.30 10.32Q92.30 7.68 94.06 6L94.06 6Q95.57 4.54 97.70 4.54L97.70 4.54Q99.79 4.54 101.26 5.69ZM104.45 4.82L106.03 4.82L106.03 15.72L104.45 15.72L104.45 4.82ZM104.21 1.27L104.21 1.27Q104.21 0.86 104.52 0.55Q104.83 0.24 105.26 0.24L105.26 0.24Q105.70 0.24 106.01 0.55Q106.32 0.86 106.32 1.27L106.32 1.27Q106.32 1.73 106.01 2.03Q105.70 2.33 105.26 2.33L105.26 2.33Q104.81 2.33 104.51 2.03Q104.21 1.73 104.21 1.27ZM119.66 10.30L119.66 10.30Q119.66 12.89 118.03 14.54L118.03 14.54Q116.57 16.01 114.43 16.01L114.43 16.01Q111.96 16.01 110.45 14.14L110.45 14.14Q109.18 12.55 109.18 10.30L109.18 10.30Q109.18 7.66 110.76 6.02L110.76 6.02Q112.20 4.54 114.43 4.54L114.43 4.54Q116.95 4.54 118.44 6.43L118.44 6.43Q119.66 8.02 119.66 10.30ZM110.90 10.30L110.90 10.30Q110.90 12.38 111.98 13.61L111.98 13.61Q112.94 14.69 114.41 14.69L114.41 14.69Q115.99 14.69 116.96 13.48Q117.94 12.26 117.94 10.30L117.94 10.30Q117.94 8.23 116.88 6.98L116.88 6.98Q115.92 5.83 114.43 5.83L114.43 5.83Q112.85 5.83 111.88 7.07Q110.90 8.30 110.90 10.30ZM138.53 1.75L138.53 1.75L137.81 2.78Q136.18 1.78 134.45 1.78L134.45 1.78Q132.26 1.78 130.92 3.65L130.92 3.65Q129.67 5.40 129.67 8.26L129.67 8.26Q129.67 11.33 131.18 13.01L131.18 13.01Q132.48 14.45 134.54 14.45L134.54 14.45Q136.08 14.45 137.42 13.87L137.42 13.87L137.42 9.22L134.71 9.22L134.71 7.66L139.18 7.66L139.18 14.64Q136.90 16.01 134.33 16.01L134.33 16.01Q130.92 16.01 129.14 13.27L129.14 13.27Q127.78 11.16 127.78 8.16L127.78 8.16Q127.78 4.80 129.65 2.47L129.65 2.47Q131.45 0.24 134.26 0.24L134.26 0.24Q136.66 0.24 138.53 1.75ZM149.90 4.82L151.49 4.82L151.49 15.72L150.24 15.72L150.10 14.47L150.02 14.50Q148.56 16.01 146.47 16.01L146.47 16.01Q144.72 16.01 143.71 14.77Q142.70 13.54 142.70 11.35L142.70 11.35L142.70 4.82L144.31 4.82L144.31 11.06Q144.31 14.59 146.95 14.59L146.95 14.59Q147.77 14.59 148.60 14.18Q149.42 13.78 149.90 13.13L149.90 13.13L149.90 4.82ZM160.97 6.14L157.63 6.14L157.61 12.96Q157.61 14.71 159.02 14.71L159.02 14.71Q159.82 14.71 160.58 14.30L160.58 14.30L161.16 15.19Q159.98 16.01 158.69 16.01L158.69 16.01Q157.42 16.01 156.72 15.22Q156.02 14.42 156.02 13.01L156.02 13.01L156.02 6.14L154.37 6.14L154.37 4.82L156.05 4.82L156.05 2.45L157.63 1.63L157.63 4.82L160.97 4.82L160.97 6.14ZM164.16 4.82L165.74 4.82L165.74 15.72L164.16 15.72L164.16 4.82ZM163.92 1.27L163.92 1.27Q163.92 0.86 164.23 0.55Q164.54 0.24 164.98 0.24L164.98 0.24Q165.41 0.24 165.72 0.55Q166.03 0.86 166.03 1.27L166.03 1.27Q166.03 1.73 165.72 2.03Q165.41 2.33 164.98 2.33L164.98 2.33Q164.52 2.33 164.22 2.03Q163.92 1.73 163.92 1.27ZM178.46 10.30L178.46 10.82L170.69 10.82Q170.78 12.58 171.90 13.63Q173.02 14.69 174.79 14.69L174.79 14.69Q176.28 14.69 177.70 13.80L177.70 13.80L178.25 14.76Q176.66 16.01 174.43 16.01L174.43 16.01Q171.84 16.01 170.30 14.30L170.30 14.30Q168.89 12.77 168.89 10.32L168.89 10.32Q168.89 7.78 170.40 6.07L170.40 6.07Q171.77 4.54 173.78 4.54L173.78 4.54Q176.21 4.54 177.48 6.50L177.48 6.50Q178.46 8.04 178.46 10.30L178.46 10.30ZM170.66 9.53L170.66 9.53L176.81 9.53Q176.74 7.78 175.96 6.79Q175.18 5.81 173.81 5.81L173.81 5.81Q172.51 5.81 171.64 6.84Q170.76 7.87 170.66 9.53ZM174.60 0L176.33 0L174.31 2.69L173.30 2.69L174.60 0ZM189.00 5.76L189.00 5.76L187.68 6.67Q186.86 5.95 185.93 5.95L185.93 5.95Q184.56 5.95 183.50 7.37L183.50 7.37L183.50 15.72L181.90 15.72L181.90 4.82L183.26 4.82L183.41 5.98L183.46 5.98Q184.87 4.54 186.36 4.54L186.36 4.54Q188.11 4.54 189.00 5.76ZM198.41 5.76L198.41 5.76L197.09 6.67Q196.27 5.95 195.34 5.95L195.34 5.95Q193.97 5.95 192.91 7.37L192.91 7.37L192.91 15.72L191.30 15.72L191.30 4.82L192.67 4.82L192.82 5.98L192.86 5.98Q194.28 4.54 195.77 4.54L195.77 4.54Q197.52 4.54 198.41 5.76ZM208.97 10.30L208.97 10.82L201.19 10.82Q201.29 12.58 202.40 13.63Q203.52 14.69 205.30 14.69L205.30 14.69Q206.78 14.69 208.20 13.80L208.20 13.80L208.75 14.76Q207.17 16.01 204.94 16.01L204.94 16.01Q202.34 16.01 200.81 14.30L200.81 14.30Q199.39 12.77 199.39 10.32L199.39 10.32Q199.39 7.78 200.90 6.07L200.90 6.07Q202.27 4.54 204.29 4.54L204.29 4.54Q206.71 4.54 207.98 6.50L207.98 6.50Q208.97 8.04 208.97 10.30L208.97 10.30ZM201.17 9.53L201.17 9.53L207.31 9.53Q207.24 7.78 206.46 6.79Q205.68 5.81 204.31 5.81L204.31 5.81Q203.02 5.81 202.14 6.84Q201.26 7.87 201.17 9.53ZM219.36 14.40L219.36 15.72L210.72 15.72L210.72 14.33L217.32 6.14L211.13 6.14L211.13 4.82L219.22 4.82L219.22 6.22L212.64 14.40L219.36 14.40ZM237.67 1.75L237.67 1.75L236.95 2.78Q235.34 1.78 233.66 1.78L233.66 1.78Q231.36 1.78 230.04 3.67L230.04 3.67Q228.82 5.40 228.82 8.28L228.82 8.28Q228.82 11.28 230.40 12.96L230.40 12.96Q231.74 14.42 233.86 14.42L233.86 14.42Q235.58 14.42 237.14 13.30L237.14 13.30L237.86 14.38Q235.99 16.01 233.62 16.01L233.62 16.01Q230.33 16.01 228.46 13.46L228.46 13.46Q226.92 11.38 226.92 8.28L226.92 8.28Q226.92 4.82 228.79 2.47L228.79 2.47Q230.57 0.24 233.33 0.24L233.33 0.24Q235.78 0.24 237.67 1.75ZM249.19 10.30L249.19 10.82L241.42 10.82Q241.51 12.58 242.63 13.63Q243.74 14.69 245.52 14.69L245.52 14.69Q247.01 14.69 248.42 13.80L248.42 13.80L248.98 14.76Q247.39 16.01 245.16 16.01L245.16 16.01Q242.57 16.01 241.03 14.30L241.03 14.30Q239.62 12.77 239.62 10.32L239.62 10.32Q239.62 7.78 241.13 6.07L241.13 6.07Q242.50 4.54 244.51 4.54L244.51 4.54Q246.94 4.54 248.21 6.50L248.21 6.50Q249.19 8.04 249.19 10.30L249.19 10.30ZM241.39 9.53L241.39 9.53L247.54 9.53Q247.46 7.78 246.68 6.79Q245.90 5.81 244.54 5.81L244.54 5.81Q243.24 5.81 242.36 6.84Q241.49 7.87 241.39 9.53ZM259.32 5.76L259.32 5.76L258 6.67Q257.18 5.95 256.25 5.95L256.25 5.95Q254.88 5.95 253.82 7.37L253.82 7.37L253.82 15.72L252.22 15.72L252.22 4.82L253.58 4.82L253.73 5.98L253.78 5.98Q255.19 4.54 256.68 4.54L256.68 4.54Q258.43 4.54 259.32 5.76ZM268.73 5.76L268.73 5.76L267.41 6.67Q266.59 5.95 265.66 5.95L265.66 5.95Q264.29 5.95 263.23 7.37L263.23 7.37L263.23 15.72L261.62 15.72L261.62 4.82L262.99 4.82L263.14 5.98L263.18 5.98Q264.60 4.54 266.09 4.54L266.09 4.54Q267.84 4.54 268.73 5.76ZM278.54 9.10L278.54 15.72L277.34 15.72L277.10 14.54Q275.64 16.01 273.46 16.01L273.46 16.01Q271.80 16.01 270.82 15.08Q269.83 14.16 269.83 12.62L269.83 12.62Q269.83 8.88 275.30 8.88L275.30 8.88L276.96 8.88L276.96 8.74Q276.96 5.88 274.18 5.88L274.18 5.88Q272.59 5.88 271.13 6.94L271.13 6.94L270.60 6.05Q272.26 4.54 274.63 4.54L274.63 4.54Q276.53 4.54 277.54 5.71Q278.54 6.89 278.54 9.10L278.54 9.10ZM276.96 13.01L276.96 10.06L275.50 10.06Q271.56 10.06 271.56 12.48L271.56 12.48Q271.56 13.51 272.17 14.10Q272.78 14.69 273.89 14.69L273.89 14.69Q274.85 14.69 275.74 14.21Q276.62 13.73 276.96 13.01L276.96 13.01ZM287.98 6.14L284.64 6.14L284.62 12.96Q284.62 14.71 286.03 14.71L286.03 14.71Q286.82 14.71 287.59 14.30L287.59 14.30L288.17 15.19Q286.99 16.01 285.70 16.01L285.70 16.01Q284.42 16.01 283.73 15.22Q283.03 14.42 283.03 13.01L283.03 13.01L283.03 6.14L281.38 6.14L281.38 4.82L283.06 4.82L283.06 2.45L284.64 1.63L284.64 4.82L287.98 4.82L287.98 6.14ZM300.58 10.30L300.58 10.30Q300.58 12.89 298.94 14.54L298.94 14.54Q297.48 16.01 295.34 16.01L295.34 16.01Q292.87 16.01 291.36 14.14L291.36 14.14Q290.09 12.55 290.09 10.30L290.09 10.30Q290.09 7.66 291.67 6.02L291.67 6.02Q293.11 4.54 295.34 4.54L295.34 4.54Q297.86 4.54 299.35 6.43L299.35 6.43Q300.58 8.02 300.58 10.30ZM291.82 10.30L291.82 10.30Q291.82 12.38 292.90 13.61L292.90 13.61Q293.86 14.69 295.32 14.69L295.32 14.69Q296.90 14.69 297.88 13.48Q298.85 12.26 298.85 10.30L298.85 10.30Q298.85 8.23 297.79 6.98L297.79 6.98Q296.83 5.83 295.34 5.83L295.34 5.83Q293.76 5.83 292.79 7.07Q291.82 8.30 291.82 10.30Z" transform="translate(48.584, 4.348)"></path></svg>